<svg xmlns="http://www.w3.org/2000/svg" version="1.1" xmlns:xlink="http://www.w3.org/1999/xlink" xmlns:svgjs="http://svgjs.dev/svgjs" width="1440" height="560" preserveAspectRatio="none" viewBox="0 0 1440 560"><g mask="url(&quot;#SvgjsMask1000&quot;)" fill="none"><rect width="1440" height="560" x="0" y="0" fill="#0e2a47"></rect><path d="M-44.18 398.48L-44.18 398.48" stroke="#132e65" stroke-width="1.5"></path><path d="M-44.18 398.48L43.14 395.42" stroke="#132e65" stroke-width="1.5"></path><path d="M-44.18 398.48L-51.19 525.19" stroke="#132e65" stroke-width="1.5"></path><path d="M-44.18 398.48L107.43 557.31" stroke="#132e65" stroke-width="1.5"></path><path d="M-44.18 398.48L194.13 356.86" stroke="#132e65" stroke-width="1.5"></path><path d="M-51.19 525.19L-51.19 525.19" stroke="#132e65" stroke-width="1.5"></path><path d="M-51.19 525.19L-75.56 678.94" stroke="#132e65" stroke-width="1.5"></path><path d="M-51.19 525.19L43.14 395.42" stroke="#132e65" stroke-width="1.5"></path><path d="M-75.56 678.94L-75.56 678.94" stroke="#132e65" stroke-width="1.5"></path><path d="M-75.56 678.94L98.84 663.3" stroke="#132e65" stroke-width="1.5"></path><path d="M-75.56 678.94L107.43 557.31" stroke="#132e65" stroke-width="1.5"></path><path d="M-75.56 678.94L-44.18 398.48" stroke="#132e65" stroke-width="1.5"></path><path d="M-75.56 678.94L217.29 655.36" stroke="#132e65" stroke-width="1.5"></path><path d="M-75.56 678.94L43.14 395.42" stroke="#132e65" stroke-width="1.5"></path><path d="M43.14 395.42L43.14 395.42" stroke="#132e65" stroke-width="1.5"></path><path d="M43.14 395.42L194.13 356.86" stroke="#132e65" stroke-width="1.5"></path><path d="M107.43 557.31L107.43 557.31" stroke="#132e65" stroke-width="1.5"></path><path d="M107.43 557.31L204.81 529.64" stroke="#132e65" stroke-width="1.5"></path><path d="M107.43 557.31L98.84 663.3" stroke="#132e65" stroke-width="1.5"></path><path d="M107.43 557.31L217.29 655.36" stroke="#132e65" stroke-width="1.5"></path><path d="M107.43 557.31L-51.19 525.19" stroke="#132e65" stroke-width="1.5"></path><path d="M98.84 663.3L98.84 663.3" stroke="#132e65" stroke-width="1.5"></path><path d="M98.84 663.3L217.29 655.36" stroke="#132e65" stroke-width="1.5"></path><path d="M98.84 663.3L204.81 529.64" stroke="#132e65" stroke-width="1.5"></path><path d="M98.84 663.3L-51.19 525.19" stroke="#132e65" stroke-width="1.5"></path><path d="M98.84 663.3L356.85 645.25" stroke="#132e65" stroke-width="1.5"></path><path d="M194.13 356.86L194.13 356.86" stroke="#132e65" stroke-width="1.5"></path><path d="M194.13 356.86L204.81 529.64" stroke="#132e65" stroke-width="1.5"></path><path d="M194.13 356.86L401.06 363.93" stroke="#132e65" stroke-width="1.5"></path><path d="M194.13 356.86L107.43 557.31" stroke="#132e65" stroke-width="1.5"></path><path d="M204.81 529.64L204.81 529.64" stroke="#132e65" stroke-width="1.5"></path><path d="M204.81 529.64L217.29 655.36" stroke="#132e65" stroke-width="1.5"></path><path d="M204.81 529.64L371.91 535.82" stroke="#132e65" stroke-width="1.5"></path><path d="M217.29 655.36L217.29 655.36" stroke="#132e65" stroke-width="1.5"></path><path d="M217.29 655.36L356.85 645.25" stroke="#132e65" stroke-width="1.5"></path><path d="M217.29 655.36L371.91 535.82" stroke="#132e65" stroke-width="1.5"></path><path d="M401.06 363.93L401.06 363.93" stroke="#132e65" stroke-width="1.5"></path><path d="M401.06 363.93L534.31 406.3" stroke="#132e65" stroke-width="1.5"></path><path d="M401.06 363.93L371.91 535.82" stroke="#132e65" stroke-width="1.5"></path><path d="M401.06 363.93L652.35 385.23" stroke="#132e65" stroke-width="1.5"></path><path d="M371.91 535.82L371.91 535.82" stroke="#132e65" stroke-width="1.5"></path><path d="M371.91 535.82L356.85 645.25" stroke="#132e65" stroke-width="1.5"></path><path d="M371.91 535.82L534.31 406.3" stroke="#132e65" stroke-width="1.5"></path><path d="M356.85 645.25L356.85 645.25" stroke="#132e65" stroke-width="1.5"></path><path d="M356.85 645.25L527.77 698.86" stroke="#132e65" stroke-width="1.5"></path><path d="M356.85 645.25L204.81 529.64" stroke="#132e65" stroke-width="1.5"></path><path d="M534.31 406.3L534.31 406.3" stroke="#132e65" stroke-width="1.5"></path><path d="M534.31 406.3L652.35 385.23" stroke="#132e65" stroke-width="1.5"></path><path d="M534.31 406.3L640.66 517.08" stroke="#132e65" stroke-width="1.5"></path><path d="M527.77 698.86L527.77 698.86" stroke="#132e65" stroke-width="1.5"></path><path d="M527.77 698.86L664.74 647.68" stroke="#132e65" stroke-width="1.5"></path><path d="M676.62 222.48L676.62 222.48" stroke="#132e65" stroke-width="1.5"></path><path d="M676.62 222.48L652.35 385.23" stroke="#132e65" stroke-width="1.5"></path><path d="M676.62 222.48L842.01 249.37" stroke="#132e65" stroke-width="1.5"></path><path d="M676.62 222.48L814.94 386.16" stroke="#132e65" stroke-width="1.5"></path><path d="M676.62 222.48L534.31 406.3" stroke="#132e65" stroke-width="1.5"></path><path d="M676.62 222.48L640.66 517.08" stroke="#132e65" stroke-width="1.5"></path><path d="M652.35 385.23L652.35 385.23" stroke="#132e65" stroke-width="1.5"></path><path d="M652.35 385.23L640.66 517.08" stroke="#132e65" stroke-width="1.5"></path><path d="M652.35 385.23L814.94 386.16" stroke="#132e65" stroke-width="1.5"></path><path d="M640.66 517.08L640.66 517.08" stroke="#132e65" stroke-width="1.5"></path><path d="M640.66 517.08L664.74 647.68" stroke="#132e65" stroke-width="1.5"></path><path d="M640.66 517.08L847.04 554.47" stroke="#132e65" stroke-width="1.5"></path><path d="M664.74 647.68L664.74 647.68" stroke="#132e65" stroke-width="1.5"></path><path d="M664.74 647.68L834.61 641.91" stroke="#132e65" stroke-width="1.5"></path><path d="M664.74 647.68L847.04 554.47" stroke="#132e65" stroke-width="1.5"></path><path d="M664.74 647.68L652.35 385.23" stroke="#132e65" stroke-width="1.5"></path><path d="M664.74 647.68L937.74 657" stroke="#132e65" stroke-width="1.5"></path><path d="M842.01 249.37L842.01 249.37" stroke="#132e65" stroke-width="1.5"></path><path d="M842.01 249.37L814.94 386.16" stroke="#132e65" stroke-width="1.5"></path><path d="M842.01 249.37L978.68 203.49" stroke="#132e65" stroke-width="1.5"></path><path d="M842.01 249.37L947.49 399.41" stroke="#132e65" stroke-width="1.5"></path><path d="M842.01 249.37L652.35 385.23" stroke="#132e65" stroke-width="1.5"></path><path d="M842.01 249.37L986.27 48.03" stroke="#132e65" stroke-width="1.5"></path><path d="M814.94 386.16L814.94 386.16" stroke="#132e65" stroke-width="1.5"></path><path d="M814.94 386.16L947.49 399.41" stroke="#132e65" stroke-width="1.5"></path><path d="M814.94 386.16L847.04 554.47" stroke="#132e65" stroke-width="1.5"></path><path d="M814.94 386.16L970.94 523.03" stroke="#132e65" stroke-width="1.5"></path><path d="M847.04 554.47L847.04 554.47" stroke="#132e65" stroke-width="1.5"></path><path d="M847.04 554.47L834.61 641.91" stroke="#132e65" stroke-width="1.5"></path><path d="M847.04 554.47L970.94 523.03" stroke="#132e65" stroke-width="1.5"></path><path d="M847.04 554.47L937.74 657" stroke="#132e65" stroke-width="1.5"></path><path d="M834.61 641.91L834.61 641.91" stroke="#132e65" stroke-width="1.5"></path><path d="M834.61 641.91L937.74 657" stroke="#132e65" stroke-width="1.5"></path><path d="M834.61 641.91L970.94 523.03" stroke="#132e65" stroke-width="1.5"></path><path d="M982.27 -110.56L982.27 -110.56" stroke="#132e65" stroke-width="1.5"></path><path d="M982.27 -110.56L1088.91 -53.59" stroke="#132e65" stroke-width="1.5"></path><path d="M982.27 -110.56L986.27 48.03" stroke="#132e65" stroke-width="1.5"></path><path d="M982.27 -110.56L1135.58 84.27" stroke="#132e65" stroke-width="1.5"></path><path d="M982.27 -110.56L1241.39 -100.88" stroke="#132e65" stroke-width="1.5"></path><path d="M986.27 48.03L986.27 48.03" stroke="#132e65" stroke-width="1.5"></path><path d="M986.27 48.03L1088.91 -53.59" stroke="#132e65" stroke-width="1.5"></path><path d="M986.27 48.03L1135.58 84.27" stroke="#132e65" stroke-width="1.5"></path><path d="M978.68 203.49L978.68 203.49" stroke="#132e65" stroke-width="1.5"></path><path d="M978.68 203.49L1096.62 234.65" stroke="#132e65" stroke-width="1.5"></path><path d="M978.68 203.49L986.27 48.03" stroke="#132e65" stroke-width="1.5"></path><path d="M978.68 203.49L1135.58 84.27" stroke="#132e65" stroke-width="1.5"></path><path d="M978.68 203.49L947.49 399.41" stroke="#132e65" stroke-width="1.5"></path><path d="M947.49 399.41L947.49 399.41" stroke="#132e65" stroke-width="1.5"></path><path d="M947.49 399.41L970.94 523.03" stroke="#132e65" stroke-width="1.5"></path><path d="M947.49 399.41L847.04 554.47" stroke="#132e65" stroke-width="1.5"></path><path d="M947.49 399.41L1100.5 537.13" stroke="#132e65" stroke-width="1.5"></path><path d="M970.94 523.03L970.94 523.03" stroke="#132e65" stroke-width="1.5"></path><path d="M970.94 523.03L1100.5 537.13" stroke="#132e65" stroke-width="1.5"></path><path d="M970.94 523.03L937.74 657" stroke="#132e65" stroke-width="1.5"></path><path d="M937.74 657L937.74 657" stroke="#132e65" stroke-width="1.5"></path><path d="M1088.91 -53.59L1088.91 -53.59" stroke="#132e65" stroke-width="1.5"></path><path d="M1088.91 -53.59L1135.58 84.27" stroke="#132e65" stroke-width="1.5"></path><path d="M1088.91 -53.59L1241.39 -100.88" stroke="#132e65" stroke-width="1.5"></path><path d="M1135.58 84.27L1135.58 84.27" stroke="#132e65" stroke-width="1.5"></path><path d="M1135.58 84.27L1290.08 82.81" stroke="#132e65" stroke-width="1.5"></path><path d="M1096.62 234.65L1096.62 234.65" stroke="#132e65" stroke-width="1.5"></path><path d="M1096.62 234.65L1149.53 342.49" stroke="#132e65" stroke-width="1.5"></path><path d="M1096.62 234.65L1135.58 84.27" stroke="#132e65" stroke-width="1.5"></path><path d="M1149.53 342.49L1149.53 342.49" stroke="#132e65" stroke-width="1.5"></path><path d="M1149.53 342.49L1288.44 373.45" stroke="#132e65" stroke-width="1.5"></path><path d="M1149.53 342.49L1100.5 537.13" stroke="#132e65" stroke-width="1.5"></path><path d="M1149.53 342.49L947.49 399.41" stroke="#132e65" stroke-width="1.5"></path><path d="M1149.53 342.49L978.68 203.49" stroke="#132e65" stroke-width="1.5"></path><path d="M1100.5 537.13L1100.5 537.13" stroke="#132e65" stroke-width="1.5"></path><path d="M1100.5 537.13L1157.26 696.82" stroke="#132e65" stroke-width="1.5"></path><path d="M1157.26 696.82L1157.26 696.82" stroke="#132e65" stroke-width="1.5"></path><path d="M1157.26 696.82L1311.11 703.77" stroke="#132e65" stroke-width="1.5"></path><path d="M1157.26 696.82L1305.3 547.53" stroke="#132e65" stroke-width="1.5"></path><path d="M1157.26 696.82L937.74 657" stroke="#132e65" stroke-width="1.5"></path><path d="M1157.26 696.82L1403.22 709.78" stroke="#132e65" stroke-width="1.5"></path><path d="M1241.39 -100.88L1241.39 -100.88" stroke="#132e65" stroke-width="1.5"></path><path d="M1241.39 -100.88L1396.91 -43.96" stroke="#132e65" stroke-width="1.5"></path><path d="M1241.39 -100.88L1290.08 82.81" stroke="#132e65" stroke-width="1.5"></path><path d="M1241.39 -100.88L1135.58 84.27" stroke="#132e65" stroke-width="1.5"></path><path d="M1241.39 -100.88L1444.04 40.41" stroke="#132e65" stroke-width="1.5"></path><path d="M1290.08 82.81L1290.08 82.81" stroke="#132e65" stroke-width="1.5"></path><path d="M1290.08 82.81L1398.79 194.05" stroke="#132e65" stroke-width="1.5"></path><path d="M1290.08 82.81L1444.04 40.41" stroke="#132e65" stroke-width="1.5"></path><path d="M1290.08 82.81L1396.91 -43.96" stroke="#132e65" stroke-width="1.5"></path><path d="M1288.44 373.45L1288.44 373.45" stroke="#132e65" stroke-width="1.5"></path><path d="M1288.44 373.45L1431.2 394.04" stroke="#132e65" stroke-width="1.5"></path><path d="M1288.44 373.45L1305.3 547.53" stroke="#132e65" stroke-width="1.5"></path><path d="M1288.44 373.45L1390.62 524.05" stroke="#132e65" stroke-width="1.5"></path><path d="M1305.3 547.53L1305.3 547.53" stroke="#132e65" stroke-width="1.5"></path><path d="M1305.3 547.53L1390.62 524.05" stroke="#132e65" stroke-width="1.5"></path><path d="M1305.3 547.53L1311.11 703.77" stroke="#132e65" stroke-width="1.5"></path><path d="M1305.3 547.53L1403.22 709.78" stroke="#132e65" stroke-width="1.5"></path><path d="M1305.3 547.53L1431.2 394.04" stroke="#132e65" stroke-width="1.5"></path><path d="M1311.11 703.77L1311.11 703.77" stroke="#132e65" stroke-width="1.5"></path><path d="M1311.11 703.77L1403.22 709.78" stroke="#132e65" stroke-width="1.5"></path><path d="M1396.91 -43.96L1396.91 -43.96" stroke="#132e65" stroke-width="1.5"></path><path d="M1396.91 -43.96L1444.04 40.41" stroke="#132e65" stroke-width="1.5"></path><path d="M1396.91 -43.96L1539.17 -71.25" stroke="#132e65" stroke-width="1.5"></path><path d="M1444.04 40.41L1444.04 40.41" stroke="#132e65" stroke-width="1.5"></path><path d="M1444.04 40.41L1539.17 -71.25" stroke="#132e65" stroke-width="1.5"></path><path d="M1398.79 194.05L1398.79 194.05" stroke="#132e65" stroke-width="1.5"></path><path d="M1398.79 194.05L1444.04 40.41" stroke="#132e65" stroke-width="1.5"></path><path d="M1398.79 194.05L1556.58 223.79" stroke="#132e65" stroke-width="1.5"></path><path d="M1398.79 194.05L1431.2 394.04" stroke="#132e65" stroke-width="1.5"></path><path d="M1398.79 194.05L1288.44 373.45" stroke="#132e65" stroke-width="1.5"></path><path d="M1398.79 194.05L1549.45 355.92" stroke="#132e65" stroke-width="1.5"></path><path d="M1431.2 394.04L1431.2 394.04" stroke="#132e65" stroke-width="1.5"></path><path d="M1431.2 394.04L1549.45 355.92" stroke="#132e65" stroke-width="1.5"></path><path d="M1431.2 394.04L1390.62 524.05" stroke="#132e65" stroke-width="1.5"></path><path d="M1431.2 394.04L1556.58 223.79" stroke="#132e65" stroke-width="1.5"></path><path d="M1390.62 524.05L1390.62 524.05" stroke="#132e65" stroke-width="1.5"></path><path d="M1390.62 524.05L1403.22 709.78" stroke="#132e65" stroke-width="1.5"></path><path d="M1390.62 524.05L1311.11 703.77" stroke="#132e65" stroke-width="1.5"></path><path d="M1390.62 524.05L1545.41 687.61" stroke="#132e65" stroke-width="1.5"></path><path d="M1403.22 709.78L1403.22 709.78" stroke="#132e65" stroke-width="1.5"></path><path d="M1403.22 709.78L1545.41 687.61" stroke="#132e65" stroke-width="1.5"></path><path d="M1539.17 -71.25L1539.17 -71.25" stroke="#132e65" stroke-width="1.5"></path><path d="M1539.17 -71.25L1605.1 59.97" stroke="#132e65" stroke-width="1.5"></path><path d="M1539.17 -71.25L1290.08 82.81" stroke="#132e65" stroke-width="1.5"></path><path d="M1605.1 59.97L1605.1 59.97" stroke="#132e65" stroke-width="1.5"></path><path d="M1605.1 59.97L1444.04 40.41" stroke="#132e65" stroke-width="1.5"></path><path d="M1605.1 59.97L1556.58 223.79" stroke="#132e65" stroke-width="1.5"></path><path d="M1605.1 59.97L1396.91 -43.96" stroke="#132e65" stroke-width="1.5"></path><path d="M1556.58 223.79L1556.58 223.79" stroke="#132e65" stroke-width="1.5"></path><path d="M1556.58 223.79L1549.45 355.92" stroke="#132e65" stroke-width="1.5"></path><path d="M1549.45 355.92L1549.45 355.92" stroke="#132e65" stroke-width="1.5"></path><path d="M1549.45 355.92L1390.62 524.05" stroke="#132e65" stroke-width="1.5"></path><path d="M1549.45 355.92L1288.44 373.45" stroke="#132e65" stroke-width="1.5"></path><path d="M1545.41 687.61L1545.41 687.61" stroke="#132e65" stroke-width="1.5"></path><path d="M1545.41 687.61L1311.11 703.77" stroke="#132e65" stroke-width="1.5"></path><path d="M1545.41 687.61L1305.3 547.53" stroke="#132e65" stroke-width="1.5"></path><circle r="5" cx="-44.18" cy="398.48" fill="#132e65"></circle><circle r="5" cx="-51.19" cy="525.19" fill="#132e65"></circle><circle r="5" cx="-75.56" cy="678.94" fill="#132e65"></circle><circle r="5" cx="43.14" cy="395.42" fill="#132e65"></circle><circle r="5" cx="107.43" cy="557.31" fill="#132e65"></circle><circle r="5" cx="98.84" cy="663.3" fill="#132e65"></circle><circle r="5" cx="194.13" cy="356.86" fill="#132e65"></circle><circle r="5" cx="204.81" cy="529.64" fill="#132e65"></circle><circle r="5" cx="217.29" cy="655.36" fill="#132e65"></circle><circle r="5" cx="401.06" cy="363.93" fill="#132e65"></circle><circle r="5" cx="371.91" cy="535.82" fill="#132e65"></circle><circle r="5" cx="356.85" cy="645.25" fill="#132e65"></circle><circle r="5" cx="534.31" cy="406.3" fill="#132e65"></circle><circle r="5" cx="527.77" cy="698.86" fill="#132e65"></circle><circle r="5" cx="676.62" cy="222.48" fill="#132e65"></circle><circle r="5" cx="652.35" cy="385.23" fill="#132e65"></circle><circle r="5" cx="640.66" cy="517.08" fill="#132e65"></circle><circle r="5" cx="664.74" cy="647.68" fill="#132e65"></circle><circle r="5" cx="842.01" cy="249.37" fill="#132e65"></circle><circle r="5" cx="814.94" cy="386.16" fill="#132e65"></circle><circle r="5" cx="847.04" cy="554.47" fill="#132e65"></circle><circle r="5" cx="834.61" cy="641.91" fill="#132e65"></circle><circle r="5" cx="982.27" cy="-110.56" fill="#132e65"></circle><circle r="5" cx="986.27" cy="48.03" fill="#132e65"></circle><circle r="5" cx="978.68" cy="203.49" fill="#132e65"></circle><circle r="5" cx="947.49" cy="399.41" fill="#132e65"></circle><circle r="5" cx="970.94" cy="523.03" fill="#132e65"></circle><circle r="5" cx="937.74" cy="657" fill="#132e65"></circle><circle r="5" cx="1088.91" cy="-53.59" fill="#132e65"></circle><circle r="5" cx="1135.58" cy="84.27" fill="#132e65"></circle><circle r="5" cx="1096.62" cy="234.65" fill="#132e65"></circle><circle r="5" cx="1149.53" cy="342.49" fill="#132e65"></circle><circle r="5" cx="1100.5" cy="537.13" fill="#132e65"></circle><circle r="5" cx="1157.26" cy="696.82" fill="#132e65"></circle><circle r="5" cx="1241.39" cy="-100.88" fill="#132e65"></circle><circle r="5" cx="1290.08" cy="82.81" fill="#132e65"></circle><circle r="5" cx="1288.44" cy="373.45" fill="#132e65"></circle><circle r="5" cx="1305.3" cy="547.53" fill="#132e65"></circle><circle r="5" cx="1311.11" cy="703.77" fill="#132e65"></circle><circle r="5" cx="1396.91" cy="-43.96" fill="#132e65"></circle><circle r="5" cx="1444.04" cy="40.41" fill="#132e65"></circle><circle r="5" cx="1398.79" cy="194.05" fill="#132e65"></circle><circle r="5" cx="1431.2" cy="394.04" fill="#132e65"></circle><circle r="5" cx="1390.62" cy="524.05" fill="#132e65"></circle><circle r="5" cx="1403.22" cy="709.78" fill="#132e65"></circle><circle r="5" cx="1539.17" cy="-71.25" fill="#132e65"></circle><circle r="5" cx="1605.1" cy="59.97" fill="#132e65"></circle><circle r="5" cx="1556.58" cy="223.79" fill="#132e65"></circle><circle r="5" cx="1549.45" cy="355.92" fill="#132e65"></circle><circle r="5" cx="1545.41" cy="687.61" fill="#132e65"></circle><path d="M109.49 515.74L109.49 515.74" stroke="hsl(228.5, 77.2%, 51.5%)" stroke-width="1.5"></path><path d="M109.49 515.74L203.87 502.85" stroke="hsl(228.5, 77.2%, 51.5%)" stroke-width="1.5"></path><path d="M109.49 515.74L72.9 653.3" stroke="hsl(228.5, 77.2%, 51.5%)" stroke-width="1.5"></path><path d="M72.9 653.3L72.9 653.3" stroke="hsl(228.5, 77.2%, 51.5%)" stroke-width="1.5"></path><path d="M72.9 653.3L-103.07 641.51" stroke="hsl(228.5, 77.2%, 51.5%)" stroke-width="1.5"></path><path d="M203.87 502.85L203.87 502.85" stroke="hsl(228.5, 77.2%, 51.5%)" stroke-width="1.5"></path><path d="M259.91 676.4L259.91 676.4" stroke="hsl(228.5, 77.2%, 51.5%)" stroke-width="1.5"></path><path d="M259.91 676.4L380.52 644.1" stroke="hsl(228.5, 77.2%, 51.5%)" stroke-width="1.5"></path><path d="M259.91 676.4L203.87 502.85" stroke="hsl(228.5, 77.2%, 51.5%)" stroke-width="1.5"></path><path d="M259.91 676.4L72.9 653.3" stroke="hsl(228.5, 77.2%, 51.5%)" stroke-width="1.5"></path><path d="M259.91 676.4L387.54 523.97" stroke="hsl(228.5, 77.2%, 51.5%)" stroke-width="1.5"></path><path d="M259.91 676.4L109.49 515.74" stroke="hsl(228.5, 77.2%, 51.5%)" stroke-width="1.5"></path><path d="M493.89 531.43L493.89 531.43" stroke="hsl(228.5, 77.2%, 51.5%)" stroke-width="1.5"></path><path d="M493.89 531.43L387.54 523.97" stroke="hsl(228.5, 77.2%, 51.5%)" stroke-width="1.5"></path><path d="M493.89 531.43L502.67 650.48" stroke="hsl(228.5, 77.2%, 51.5%)" stroke-width="1.5"></path><path d="M493.89 531.43L554.99 397.11" stroke="hsl(228.5, 77.2%, 51.5%)" stroke-width="1.5"></path><path d="M493.89 531.43L650.87 556.5" stroke="hsl(228.5, 77.2%, 51.5%)" stroke-width="1.5"></path><path d="M493.89 531.43L380.52 644.1" stroke="hsl(228.5, 77.2%, 51.5%)" stroke-width="1.5"></path><path d="M493.89 531.43L642.86 653.3" stroke="hsl(228.5, 77.2%, 51.5%)" stroke-width="1.5"></path><path d="M850.8 661.43L850.8 661.43" stroke="hsl(228.5, 77.2%, 51.5%)" stroke-width="1.5"></path><path d="M850.8 661.43L832.65 539.6" stroke="hsl(228.5, 77.2%, 51.5%)" stroke-width="1.5"></path><path d="M850.8 661.43L957.85 554.37" stroke="hsl(228.5, 77.2%, 51.5%)" stroke-width="1.5"></path><path d="M850.8 661.43L1012.36 684.45" stroke="hsl(228.5, 77.2%, 51.5%)" stroke-width="1.5"></path><path d="M850.8 661.43L642.86 653.3" stroke="hsl(228.5, 77.2%, 51.5%)" stroke-width="1.5"></path><path d="M850.8 661.43L650.87 556.5" stroke="hsl(228.5, 77.2%, 51.5%)" stroke-width="1.5"></path><path d="M1162.09 47.54L1162.09 47.54" stroke="hsl(228.5, 77.2%, 51.5%)" stroke-width="1.5"></path><path d="M1162.09 47.54L1291.21 57.37" stroke="hsl(228.5, 77.2%, 51.5%)" stroke-width="1.5"></path><path d="M1162.09 47.54L1121.06 187.94" stroke="hsl(228.5, 77.2%, 51.5%)" stroke-width="1.5"></path><path d="M1162.09 47.54L1266.53 -106.02" stroke="hsl(228.5, 77.2%, 51.5%)" stroke-width="1.5"></path><path d="M1162.09 47.54L1242.2 261.84" stroke="hsl(228.5, 77.2%, 51.5%)" stroke-width="1.5"></path><path d="M1242.2 261.84L1242.2 261.84" stroke="hsl(228.5, 77.2%, 51.5%)" stroke-width="1.5"></path><path d="M1242.2 261.84L1121.06 187.94" stroke="hsl(228.5, 77.2%, 51.5%)" stroke-width="1.5"></path><path d="M1242.2 261.84L1131.65 394.58" stroke="hsl(228.5, 77.2%, 51.5%)" stroke-width="1.5"></path><path d="M-81.48 514.9L-81.48 514.9" stroke="hsl(228.5, 77.2%, 51.5%)" stroke-width="1.5"></path><path d="M-81.48 514.9L-103.07 641.51" stroke="hsl(228.5, 77.2%, 51.5%)" stroke-width="1.5"></path><path d="M-81.48 514.9L109.49 515.74" stroke="hsl(228.5, 77.2%, 51.5%)" stroke-width="1.5"></path><path d="M-81.48 514.9L72.9 653.3" stroke="hsl(228.5, 77.2%, 51.5%)" stroke-width="1.5"></path><path d="M-81.48 514.9L203.87 502.85" stroke="hsl(228.5, 77.2%, 51.5%)" stroke-width="1.5"></path><path d="M-81.48 514.9L259.91 676.4" stroke="hsl(228.5, 77.2%, 51.5%)" stroke-width="1.5"></path><path d="M-103.07 641.51L-103.07 641.51" stroke="hsl(228.5, 77.2%, 51.5%)" stroke-width="1.5"></path><path d="M-103.07 641.51L109.49 515.74" stroke="hsl(228.5, 77.2%, 51.5%)" stroke-width="1.5"></path><path d="M387.54 523.97L387.54 523.97" stroke="hsl(228.5, 77.2%, 51.5%)" stroke-width="1.5"></path><path d="M387.54 523.97L380.52 644.1" stroke="hsl(228.5, 77.2%, 51.5%)" stroke-width="1.5"></path><path d="M387.54 523.97L502.67 650.48" stroke="hsl(228.5, 77.2%, 51.5%)" stroke-width="1.5"></path><path d="M387.54 523.97L203.87 502.85" stroke="hsl(228.5, 77.2%, 51.5%)" stroke-width="1.5"></path><path d="M387.54 523.97L554.99 397.11" stroke="hsl(228.5, 77.2%, 51.5%)" stroke-width="1.5"></path><path d="M380.52 644.1L380.52 644.1" stroke="hsl(228.5, 77.2%, 51.5%)" stroke-width="1.5"></path><path d="M380.52 644.1L502.67 650.48" stroke="hsl(228.5, 77.2%, 51.5%)" stroke-width="1.5"></path><path d="M554.99 397.11L554.99 397.11" stroke="hsl(228.5, 77.2%, 51.5%)" stroke-width="1.5"></path><path d="M554.99 397.11L659.75 412.1" stroke="hsl(228.5, 77.2%, 51.5%)" stroke-width="1.5"></path><path d="M554.99 397.11L650.87 556.5" stroke="hsl(228.5, 77.2%, 51.5%)" stroke-width="1.5"></path><path d="M554.99 397.11L502.67 650.48" stroke="hsl(228.5, 77.2%, 51.5%)" stroke-width="1.5"></path><path d="M502.67 650.48L502.67 650.48" stroke="hsl(228.5, 77.2%, 51.5%)" stroke-width="1.5"></path><path d="M502.67 650.48L642.86 653.3" stroke="hsl(228.5, 77.2%, 51.5%)" stroke-width="1.5"></path><path d="M502.67 650.48L650.87 556.5" stroke="hsl(228.5, 77.2%, 51.5%)" stroke-width="1.5"></path><path d="M659.75 412.1L659.75 412.1" stroke="hsl(228.5, 77.2%, 51.5%)" stroke-width="1.5"></path><path d="M659.75 412.1L650.87 556.5" stroke="hsl(228.5, 77.2%, 51.5%)" stroke-width="1.5"></path><path d="M659.75 412.1L826.25 384.73" stroke="hsl(228.5, 77.2%, 51.5%)" stroke-width="1.5"></path><path d="M659.75 412.1L493.89 531.43" stroke="hsl(228.5, 77.2%, 51.5%)" stroke-width="1.5"></path><path d="M650.87 556.5L650.87 556.5" stroke="hsl(228.5, 77.2%, 51.5%)" stroke-width="1.5"></path><path d="M650.87 556.5L642.86 653.3" stroke="hsl(228.5, 77.2%, 51.5%)" stroke-width="1.5"></path><path d="M642.86 653.3L642.86 653.3" stroke="hsl(228.5, 77.2%, 51.5%)" stroke-width="1.5"></path><path d="M642.86 653.3L832.65 539.6" stroke="hsl(228.5, 77.2%, 51.5%)" stroke-width="1.5"></path><path d="M642.86 653.3L659.75 412.1" stroke="hsl(228.5, 77.2%, 51.5%)" stroke-width="1.5"></path><path d="M826.25 384.73L826.25 384.73" stroke="hsl(228.5, 77.2%, 51.5%)" stroke-width="1.5"></path><path d="M826.25 384.73L957.27 374.7" stroke="hsl(228.5, 77.2%, 51.5%)" stroke-width="1.5"></path><path d="M826.25 384.73L832.65 539.6" stroke="hsl(228.5, 77.2%, 51.5%)" stroke-width="1.5"></path><path d="M826.25 384.73L957.85 554.37" stroke="hsl(228.5, 77.2%, 51.5%)" stroke-width="1.5"></path><path d="M826.25 384.73L650.87 556.5" stroke="hsl(228.5, 77.2%, 51.5%)" stroke-width="1.5"></path><path d="M826.25 384.73L554.99 397.11" stroke="hsl(228.5, 77.2%, 51.5%)" stroke-width="1.5"></path><path d="M832.65 539.6L832.65 539.6" stroke="hsl(228.5, 77.2%, 51.5%)" stroke-width="1.5"></path><path d="M957.27 374.7L957.27 374.7" stroke="hsl(228.5, 77.2%, 51.5%)" stroke-width="1.5"></path><path d="M957.27 374.7L1131.65 394.58" stroke="hsl(228.5, 77.2%, 51.5%)" stroke-width="1.5"></path><path d="M957.85 554.37L957.85 554.37" stroke="hsl(228.5, 77.2%, 51.5%)" stroke-width="1.5"></path><path d="M957.85 554.37L832.65 539.6" stroke="hsl(228.5, 77.2%, 51.5%)" stroke-width="1.5"></path><path d="M957.85 554.37L1012.36 684.45" stroke="hsl(228.5, 77.2%, 51.5%)" stroke-width="1.5"></path><path d="M1012.36 684.45L1012.36 684.45" stroke="hsl(228.5, 77.2%, 51.5%)" stroke-width="1.5"></path><path d="M1012.36 684.45L1121.49 541.25" stroke="hsl(228.5, 77.2%, 51.5%)" stroke-width="1.5"></path><path d="M1121.06 187.94L1121.06 187.94" stroke="hsl(228.5, 77.2%, 51.5%)" stroke-width="1.5"></path><path d="M1121.06 187.94L1131.65 394.58" stroke="hsl(228.5, 77.2%, 51.5%)" stroke-width="1.5"></path><path d="M1121.06 187.94L1291.21 57.37" stroke="hsl(228.5, 77.2%, 51.5%)" stroke-width="1.5"></path><path d="M1121.06 187.94L957.27 374.7" stroke="hsl(228.5, 77.2%, 51.5%)" stroke-width="1.5"></path><path d="M1121.06 187.94L1428.69 261.64" stroke="hsl(228.5, 77.2%, 51.5%)" stroke-width="1.5"></path><path d="M1131.65 394.58L1131.65 394.58" stroke="hsl(228.5, 77.2%, 51.5%)" stroke-width="1.5"></path><path d="M1131.65 394.58L1121.49 541.25" stroke="hsl(228.5, 77.2%, 51.5%)" stroke-width="1.5"></path><path d="M1131.65 394.58L1276.55 545.77" stroke="hsl(228.5, 77.2%, 51.5%)" stroke-width="1.5"></path><path d="M1131.65 394.58L957.85 554.37" stroke="hsl(228.5, 77.2%, 51.5%)" stroke-width="1.5"></path><path d="M1121.49 541.25L1121.49 541.25" stroke="hsl(228.5, 77.2%, 51.5%)" stroke-width="1.5"></path><path d="M1121.49 541.25L1276.55 545.77" stroke="hsl(228.5, 77.2%, 51.5%)" stroke-width="1.5"></path><path d="M1121.49 541.25L957.85 554.37" stroke="hsl(228.5, 77.2%, 51.5%)" stroke-width="1.5"></path><path d="M1266.53 -106.02L1266.53 -106.02" stroke="hsl(228.5, 77.2%, 51.5%)" stroke-width="1.5"></path><path d="M1266.53 -106.02L1291.21 57.37" stroke="hsl(228.5, 77.2%, 51.5%)" stroke-width="1.5"></path><path d="M1266.53 -106.02L1447.35 -72.47" stroke="hsl(228.5, 77.2%, 51.5%)" stroke-width="1.5"></path><path d="M1266.53 -106.02L1121.06 187.94" stroke="hsl(228.5, 77.2%, 51.5%)" stroke-width="1.5"></path><path d="M1291.21 57.37L1291.21 57.37" stroke="hsl(228.5, 77.2%, 51.5%)" stroke-width="1.5"></path><path d="M1291.21 57.37L1447.35 -72.47" stroke="hsl(228.5, 77.2%, 51.5%)" stroke-width="1.5"></path><path d="M1291.21 57.37L1242.2 261.84" stroke="hsl(228.5, 77.2%, 51.5%)" stroke-width="1.5"></path><path d="M1276.55 545.77L1276.55 545.77" stroke="hsl(228.5, 77.2%, 51.5%)" stroke-width="1.5"></path><path d="M1276.55 545.77L1268.29 697.34" stroke="hsl(228.5, 77.2%, 51.5%)" stroke-width="1.5"></path><path d="M1268.29 697.34L1268.29 697.34" stroke="hsl(228.5, 77.2%, 51.5%)" stroke-width="1.5"></path><path d="M1447.35 -72.47L1447.35 -72.47" stroke="hsl(228.5, 77.2%, 51.5%)" stroke-width="1.5"></path><path d="M1447.35 -72.47L1605.25 -63.46" stroke="hsl(228.5, 77.2%, 51.5%)" stroke-width="1.5"></path><path d="M1447.35 -72.47L1545.13 80.82" stroke="hsl(228.5, 77.2%, 51.5%)" stroke-width="1.5"></path><path d="M1447.35 -72.47L1162.09 47.54" stroke="hsl(228.5, 77.2%, 51.5%)" stroke-width="1.5"></path><path d="M1447.35 -72.47L1428.69 261.64" stroke="hsl(228.5, 77.2%, 51.5%)" stroke-width="1.5"></path><path d="M1428.69 261.64L1428.69 261.64" stroke="hsl(228.5, 77.2%, 51.5%)" stroke-width="1.5"></path><path d="M1428.69 261.64L1389.85 411.45" stroke="hsl(228.5, 77.2%, 51.5%)" stroke-width="1.5"></path><path d="M1428.69 261.64L1611.57 250.8" stroke="hsl(228.5, 77.2%, 51.5%)" stroke-width="1.5"></path><path d="M1428.69 261.64L1242.2 261.84" stroke="hsl(228.5, 77.2%, 51.5%)" stroke-width="1.5"></path><path d="M1389.85 411.45L1389.85 411.45" stroke="hsl(228.5, 77.2%, 51.5%)" stroke-width="1.5"></path><path d="M1389.85 411.45L1439.2 505.68" stroke="hsl(228.5, 77.2%, 51.5%)" stroke-width="1.5"></path><path d="M1439.2 505.68L1439.2 505.68" stroke="hsl(228.5, 77.2%, 51.5%)" stroke-width="1.5"></path><path d="M1439.2 505.68L1439.73 656.04" stroke="hsl(228.5, 77.2%, 51.5%)" stroke-width="1.5"></path><path d="M1439.2 505.68L1590.94 505.51" stroke="hsl(228.5, 77.2%, 51.5%)" stroke-width="1.5"></path><path d="M1439.2 505.68L1276.55 545.77" stroke="hsl(228.5, 77.2%, 51.5%)" stroke-width="1.5"></path><path d="M1439.73 656.04L1439.73 656.04" stroke="hsl(228.5, 77.2%, 51.5%)" stroke-width="1.5"></path><path d="M1439.73 656.04L1544.81 694.09" stroke="hsl(228.5, 77.2%, 51.5%)" stroke-width="1.5"></path><path d="M1439.73 656.04L1268.29 697.34" stroke="hsl(228.5, 77.2%, 51.5%)" stroke-width="1.5"></path><path d="M1439.73 656.04L1276.55 545.77" stroke="hsl(228.5, 77.2%, 51.5%)" stroke-width="1.5"></path><path d="M1439.73 656.04L1590.94 505.51" stroke="hsl(228.5, 77.2%, 51.5%)" stroke-width="1.5"></path><path d="M1439.73 656.04L1389.85 411.45" stroke="hsl(228.5, 77.2%, 51.5%)" stroke-width="1.5"></path><path d="M1605.25 -63.46L1605.25 -63.46" stroke="hsl(228.5, 77.2%, 51.5%)" stroke-width="1.5"></path><path d="M1605.25 -63.46L1545.13 80.82" stroke="hsl(228.5, 77.2%, 51.5%)" stroke-width="1.5"></path><path d="M1605.25 -63.46L1611.57 250.8" stroke="hsl(228.5, 77.2%, 51.5%)" stroke-width="1.5"></path><path d="M1605.25 -63.46L1291.21 57.37" stroke="hsl(228.5, 77.2%, 51.5%)" stroke-width="1.5"></path><path d="M1545.13 80.82L1545.13 80.82" stroke="hsl(228.5, 77.2%, 51.5%)" stroke-width="1.5"></path><path d="M1611.57 250.8L1611.57 250.8" stroke="hsl(228.5, 77.2%, 51.5%)" stroke-width="1.5"></path><path d="M1611.57 250.8L1570.6 392.3" stroke="hsl(228.5, 77.2%, 51.5%)" stroke-width="1.5"></path><path d="M1611.57 250.8L1545.13 80.82" stroke="hsl(228.5, 77.2%, 51.5%)" stroke-width="1.5"></path><path d="M1611.57 250.8L1590.94 505.51" stroke="hsl(228.5, 77.2%, 51.5%)" stroke-width="1.5"></path><path d="M1611.57 250.8L1389.85 411.45" stroke="hsl(228.5, 77.2%, 51.5%)" stroke-width="1.5"></path><path d="M1570.6 392.3L1570.6 392.3" stroke="hsl(228.5, 77.2%, 51.5%)" stroke-width="1.5"></path><path d="M1570.6 392.3L1590.94 505.51" stroke="hsl(228.5, 77.2%, 51.5%)" stroke-width="1.5"></path><path d="M1570.6 392.3L1439.2 505.68" stroke="hsl(228.5, 77.2%, 51.5%)" stroke-width="1.5"></path><path d="M1570.6 392.3L1389.85 411.45" stroke="hsl(228.5, 77.2%, 51.5%)" stroke-width="1.5"></path><path d="M1570.6 392.3L1428.69 261.64" stroke="hsl(228.5, 77.2%, 51.5%)" stroke-width="1.5"></path><path d="M1590.94 505.51L1590.94 505.51" stroke="hsl(228.5, 77.2%, 51.5%)" stroke-width="1.5"></path><path d="M1544.81 694.09L1544.81 694.09" stroke="hsl(228.5, 77.2%, 51.5%)" stroke-width="1.5"></path><path d="M1544.81 694.09L1590.94 505.51" stroke="hsl(228.5, 77.2%, 51.5%)" stroke-width="1.5"></path><circle r="25" cx="109.49" cy="515.74" fill="url(&quot;#SvgjsRadialGradient1001&quot;)"></circle><circle r="25" cx="72.9" cy="653.3" fill="url(&quot;#SvgjsRadialGradient1001&quot;)"></circle><circle r="25" cx="203.87" cy="502.85" fill="url(&quot;#SvgjsRadialGradient1001&quot;)"></circle><circle r="25" cx="259.91" cy="676.4" fill="url(&quot;#SvgjsRadialGradient1001&quot;)"></circle><circle r="25" cx="493.89" cy="531.43" fill="url(&quot;#SvgjsRadialGradient1001&quot;)"></circle><circle r="25" cx="850.8" cy="661.43" fill="url(&quot;#SvgjsRadialGradient1001&quot;)"></circle><circle r="25" cx="1162.09" cy="47.54" fill="url(&quot;#SvgjsRadialGradient1001&quot;)"></circle><circle r="25" cx="1242.2" cy="261.84" fill="url(&quot;#SvgjsRadialGradient1001&quot;)"></circle><circle r="5" cx="-81.48" cy="514.9" fill="#8b9ad9"></circle><circle r="5" cx="-103.07" cy="641.51" fill="#8b9ad9"></circle><circle r="5" cx="387.54" cy="523.97" fill="#8b9ad9"></circle><circle r="5" cx="380.52" cy="644.1" fill="#8b9ad9"></circle><circle r="5" cx="554.99" cy="397.11" fill="#8b9ad9"></circle><circle r="5" cx="502.67" cy="650.48" fill="#8b9ad9"></circle><circle r="5" cx="659.75" cy="412.1" fill="#8b9ad9"></circle><circle r="5" cx="650.87" cy="556.5" fill="#8b9ad9"></circle><circle r="5" cx="642.86" cy="653.3" fill="#8b9ad9"></circle><circle r="5" cx="826.25" cy="384.73" fill="#8b9ad9"></circle><circle r="5" cx="832.65" cy="539.6" fill="#8b9ad9"></circle><circle r="5" cx="957.27" cy="374.7" fill="#8b9ad9"></circle><circle r="5" cx="957.85" cy="554.37" fill="#8b9ad9"></circle><circle r="5" cx="1012.36" cy="684.45" fill="#8b9ad9"></circle><circle r="5" cx="1121.06" cy="187.94" fill="#8b9ad9"></circle><circle r="5" cx="1131.65" cy="394.58" fill="#8b9ad9"></circle><circle r="5" cx="1121.49" cy="541.25" fill="#8b9ad9"></circle><circle r="5" cx="1266.53" cy="-106.02" fill="#8b9ad9"></circle><circle r="5" cx="1291.21" cy="57.37" fill="#8b9ad9"></circle><circle r="5" cx="1276.55" cy="545.77" fill="#8b9ad9"></circle><circle r="5" cx="1268.29" cy="697.34" fill="#8b9ad9"></circle><circle r="5" cx="1447.35" cy="-72.47" fill="#8b9ad9"></circle><circle r="5" cx="1428.69" cy="261.64" fill="#8b9ad9"></circle><circle r="5" cx="1389.85" cy="411.45" fill="#8b9ad9"></circle><circle r="5" cx="1439.2" cy="505.68" fill="#8b9ad9"></circle><circle r="5" cx="1439.73" cy="656.04" fill="#8b9ad9"></circle><circle r="5" cx="1605.25" cy="-63.46" fill="#8b9ad9"></circle><circle r="5" cx="1545.13" cy="80.82" fill="#8b9ad9"></circle><circle r="5" cx="1611.57" cy="250.8" fill="#8b9ad9"></circle><circle r="5" cx="1570.6" cy="392.3" fill="#8b9ad9"></circle><circle r="5" cx="1590.94" cy="505.51" fill="#8b9ad9"></circle><circle r="5" cx="1544.81" cy="694.09" fill="#8b9ad9"></circle></g><defs><mask id="SvgjsMask1000"><rect width="1440" height="560" fill="#ffffff"></rect></mask><radialGradient id="SvgjsRadialGradient1001"><stop stop-color="#ffffff" offset="0.1"></stop><stop stop-color="#1735b3" offset="0.2"></stop><stop stop-color="rgba(23, 53, 179, 0)" offset="1"></stop></radialGradient></defs></svg>